<svg xmlns="http://www.w3.org/2000/svg" viewBox="0 0 1920 285.22"><defs><style>.cls-1{fill:#f50;}.cls-2{fill:#1cacd3;}.cls-3{fill:none;}</style></defs><title>Asset 38</title><g id="Layer_2" data-name="Layer 2"><g id="Layer_1-2" data-name="Layer 1"><path class="cls-1" d="M183.28,130q-5.87,20.53-20.11,29.74l19.06,28.28-18.85,12.36-24.3-34.14Q91.74,165.43,91.75,84q0-38.75,11.52-59.69T140.34,3.32q48.8,0,48.8,79.8Q189.14,109.51,183.28,130Zm-57.5-3q3.46,14.56,14.56,14.56T155,127q3.56-14.55,3.56-44.09,0-23.67-3.46-39.27T140.34,28Q129,28,125.68,43.53T122.33,82.7Q122.33,112.44,125.78,127Z"/><path class="cls-1" d="M235.64,151.19q-11.73-15.08-11.73-39.59V7.5L254.7,6.25V114.12a85.85,85.85,0,0,0,.94,13.82,18,18,0,0,0,4.71,9.63q3.77,4,11.52,4,7.33,0,10.79-4.08a19,19,0,0,0,4.29-9.63,98.13,98.13,0,0,0,.84-14.14V8.76l28.07-2.51V108q0,22.2-8.69,40.21t-36.34,18Q247.37,166.27,235.64,151.19Z"/><path class="cls-1" d="M344.56,163.34,377.65,8.13l43.78-1.88,33.93,155.83-33.51,1.26-5.66-33.72H378.7L372,163.34Zm39.8-58.86h26.18L396.08,29.29Z"/><path class="cls-1" d="M484.89,163.34V8.76l30.58-2.51V138.83H567l-3.14,24.51Z"/><path class="cls-1" d="M595.69,164.6V8.76l30.79-2.51V162.08Z"/><path class="cls-1" d="M688.68,164.6V30.75h-32l2.3-24.51H751.1l-2.51,24.51H719.26V162.08Z"/><path class="cls-1" d="M803.67,164.6V101.13L766,6.25h33.72L821.26,71.6,844.51,6.25h26.39L834.67,97.57v64.51Z"/><path class="cls-1" d="M962,6.25H981.7q23.67,0,37.7,2a44.38,44.38,0,0,1,24.82,12.25Q1055,30.76,1055,53.37q0,20.53-9.11,31.1a42.14,42.14,0,0,1-22.41,13.82,129.92,129.92,0,0,1-30.69,3.25v60.53L962,164.6Zm36.24,70.38q12.14,0,19.16-5t7-18.43q0-13.2-6.49-17.8t-20.53-4.61H993V76.62Z"/><path class="cls-1" d="M1128.74,94.43H1116.8v67.65l-30.58,2.51V7.5l37.28-1.26q27,0,42.31,10.79t15.29,33q0,14.67-5.76,24.09a45.83,45.83,0,0,1-16.65,15.71l14,34.14L1187,157.89l-30.16,8.17Zm-1.47-22.62q10.89,0,17.07-4.5t6.18-17.07q0-19.48-19.27-19.48H1116.8V71.81Z"/><path class="cls-1" d="M1222,143.34Q1211.26,120.4,1211.26,84q0-38.75,11.52-59.69t37.07-20.95q48.8,0,48.8,79.8,0,35.82-11,59.48t-38.22,23.67Q1232.83,166.27,1222,143.34ZM1274.52,127q3.56-14.55,3.56-44.09,0-23.67-3.46-39.27T1259.85,28q-11.31,0-14.66,15.5t-3.35,39.17q0,29.74,3.46,44.3t14.56,14.56Q1271,141.55,1274.52,127Z"/><path class="cls-1" d="M1344.68,6.25h32.26q31,0,46.29,19.69t15.29,59.48a124,124,0,0,1-5.76,38.75q-5.76,17.59-18.33,28.38t-32,10.79h-37.7Zm35,132.58q15.92,0,22.1-13.72t6.18-33.83V84.17a165.16,165.16,0,0,0-1.78-25.66A42.13,42.13,0,0,0,1398,39q-6.39-8.27-19.16-8.27h-3.56V138.83Z"/><path class="cls-1" d="M1483.76,151.19Q1472,136.11,1472,111.6V7.5l30.79-1.26V114.12a85.85,85.85,0,0,0,.94,13.82,18,18,0,0,0,4.71,9.63q3.77,4,11.52,4,7.33,0,10.79-4.08a19,19,0,0,0,4.29-9.63,98.13,98.13,0,0,0,.84-14.14V8.76L1564,6.25V108q0,22.2-8.69,40.21t-36.34,18Q1495.49,166.27,1483.76,151.19Z"/><path class="cls-1" d="M1609.53,141.77q-11-24.51-11-60.33a135.8,135.8,0,0,1,5-37.07q5-17.8,16.23-29.43t28.38-11.62a35.39,35.39,0,0,1,23.14,8.17,52.65,52.65,0,0,1,15.29,21.26A71.68,71.68,0,0,1,1692,60.08l-29.74,1.47a86.18,86.18,0,0,0-3.14-21.47q-3.14-12-12.57-12-9.85,0-13.61,15.71t-3.77,37.7q0,27.23,4.19,43.67t16.13,16.44q8.37,0,11.94-9.95a92.64,92.64,0,0,0,4.61-24.19l26.18,2.51a76.26,76.26,0,0,1-5,28,46.93,46.93,0,0,1-15.08,20.63q-10.05,7.75-24.51,7.75Q1620.53,166.27,1609.53,141.77Z"/><path class="cls-1" d="M1726.72,163.34V6.25h79.8L1804,30.75h-46.5V68.25h33.09l-.21,26.39h-32.89v44.19h50.69l-2.51,24.51Z"/><path class="cls-1" d="M1842.66,55.28V18h-11.84l.89-9.61h34.18l-1,9.61h-10.84v36.3Zm65.35,0V24.22l-9.16,30.61h-7L1882.09,24V54.27l-9.38.56V8.92l16.64-.45,7.71,27.26,7.6-25.92,15.19-1V54.27Z"/><path class="cls-2" d="M386.87,270,381.67,282h-15.5l26.56-55.87h13.74L432.94,282H417.28L411.66,270Zm15.41-20c-1.59-3.43-2.35-5.19-3.43-7.79-1.09,2.68-1.34,3.35-3.27,8l-3.69,8.54h14.58Z"/><path class="cls-2" d="M558.53,260.17c-4,16-14.91,23.88-32.92,23.88-10.22,0-18.26-2.51-24.13-7.62-6.2-5.28-9.47-12.9-9.47-21.78,0-18.43,13.4-30.41,33.93-30.41,9.8,0,17.51,2.6,23.54,8a24.15,24.15,0,0,1,8.21,13.4H542.61c-2.85-7-8.38-10.55-16.67-10.55-11.23,0-19.1,8-19.1,19.27,0,11.06,7.71,18.77,18.76,18.77,9,0,14.24-3.94,17.51-13Z"/><path class="cls-2" d="M596.66,282h-14V226.15h36.44c6.45,0,10.05.75,13.32,2.76a14.74,14.74,0,0,1,6.79,12.57c0,6.62-3.35,11.56-9.72,14.16,5.53,2,7.2,5.11,7.37,13.82.25,7,.67,9,2.35,12.57H623.8c-1-3.1-1.17-4.36-1.09-9.72.08-8.12-2.09-10.55-9.38-10.64H596.66Zm18.6-31.67c3.1,0,4.36-.17,5.61-.84a6.46,6.46,0,0,0,0-11.23c-1.26-.67-2.51-.84-5.61-.84h-18.6v12.9Z"/><path class="cls-2" d="M666.28,282V226.15h51.1v11.31H680.27v9.47h32.84v11.31H680.27v12.48h37.11V282Z"/><path class="cls-2" d="M758.85,270,753.66,282h-15.5l26.56-55.87h13.74L804.93,282H789.26L783.65,270Zm15.41-20c-1.59-3.43-2.35-5.19-3.43-7.79-1.09,2.68-1.34,3.35-3.27,8l-3.69,8.54h14.58Z"/><path class="cls-2" d="M847.74,282h-14V237.46H814.4V226.15H867v11.31H847.74Z"/><path class="cls-2" d="M889.47,282V226.15h14V282Z"/><path class="cls-2" d="M949.87,282,925.5,226.15H941l9.55,23.29c1.51,3.43,4.94,13.32,6.53,18.68,3.27-9.3,3.44-9.8,7-18.6l9.63-23.37h14.83L964.2,282Z"/><path class="cls-2" d="M1010.62,282V226.15h51.1v11.31h-37.11v9.47h32.84v11.31h-32.84v12.48h37.11V282Z"/><path class="cls-2" d="M1141.4,270,1136.2,282h-15.5l26.56-55.87H1161L1187.47,282H1171.8L1166.19,270Zm15.41-20c-1.59-3.43-2.35-5.19-3.43-7.79-1.09,2.68-1.34,3.35-3.27,8l-3.69,8.54H1161Z"/><path class="cls-2" d="M1259.69,282l-.92-5.86c-7.87,5.78-13.74,7.79-22.53,7.79-19,0-31.92-11.81-31.92-29.24a29.27,29.27,0,0,1,9.21-21.78c6.11-5.78,14.74-8.71,25.38-8.71,16.5,0,27.31,7.12,30.91,20.44h-15.08c-2.68-6.62-8.38-10.14-16.42-10.14-11.06,0-19.18,8.13-19.18,19.35a18.72,18.72,0,0,0,19.18,19.18c7.71,0,13.65-3.52,17.68-10.47h-14.07V251.29h27.65V282Z"/><path class="cls-2" d="M1296.65,282V226.15h51.1v11.31h-37.11v9.47h32.84v11.31h-32.84v12.48h37.11V282Z"/><path class="cls-2" d="M1416,282l-14.41-19.1c-7.37-9.8-12.15-16.75-15.5-22.12.34,5.11.34,6.37.42,24.38V282H1373V226.15h16.75L1403.29,244c5.28,7,13.07,17.84,16.5,23.2-.25-3.18-.42-10.55-.42-24V226.15h13.57V282Z"/><path class="cls-2" d="M1525.94,260.17c-4,16-14.91,23.88-32.92,23.88-10.22,0-18.26-2.51-24.13-7.62-6.2-5.28-9.47-12.9-9.47-21.78,0-18.43,13.4-30.41,33.93-30.41,9.8,0,17.51,2.6,23.54,8a24.15,24.15,0,0,1,8.21,13.4H1510c-2.85-7-8.38-10.55-16.67-10.55-11.23,0-19.1,8-19.1,19.27,0,11.06,7.71,18.77,18.76,18.77,9,0,14.24-3.94,17.51-13Z"/><path class="cls-2" d="M1564.24,282V258.49l-24.8-32.34h17.34l14.66,20.19,14.74-20.19h17.34l-25.3,32.34V282Z"/><rect class="cls-3" width="1920" height="285.22"/></g></g></svg>